<?xml version="1.0" standalone="no"?>
<!DOCTYPE svg PUBLIC "-//W3C//DTD SVG 20010904//EN"
 "http://www.w3.org/TR/2001/REC-SVG-20010904/DTD/svg10.dtd">
<svg version="1.0" xmlns="http://www.w3.org/2000/svg"
 width="500.000000pt" height="500.000000pt" viewBox="0 0 500.000000 500.000000"
 preserveAspectRatio="xMidYMid meet">

<g transform="translate(0.000000,500.000000) scale(0.100000,-0.100000)"
fill="#000000" stroke="none">
<path d="M0 2500 l0 -2500 2500 0 2500 0 0 2500 0 2500 -2500 0 -2500 0 0
-2500z m2628 1188 c17 -40 72 -176 123 -301 l92 -228 -94 -89 -94 -89 -137 -1
-136 0 -101 86 c-56 48 -101 91 -101 97 0 10 225 570 237 590 2 4 44 7 93 7
l88 0 30 -72z m512 -623 l0 -85 -111 0 c-101 0 -110 -2 -105 -17 3 -10 42
-106 86 -213 l81 -195 -122 -117 -122 -118 -271 -2 -271 -3 0 -265 0 -265 423
-3 422 -2 0 -85 0 -85 -520 0 -520 0 0 432 c0 238 -4 428 -8 422 -5 -5 -30
-64 -56 -131 l-48 -123 -104 0 -104 0 10 25 c5 14 76 188 156 387 97 239 149
379 153 415 l6 53 92 -78 92 -77 0 -227 1 -228 305 0 c168 0 305 2 305 5 0 4
-39 106 -87 227 l-87 221 113 109 113 108 89 0 89 0 0 -85z m39 -731 l50 -119
-97 -3 c-52 -1 -100 -1 -106 1 -6 3 -20 28 -30 57 l-19 53 74 67 c41 38 75 67
76 66 2 -1 25 -56 52 -122z m-2402 -1044 c50 -128 50 -130 28 -130 -18 0 -26
9 -35 35 -11 34 -13 35 -61 35 -48 0 -51 -2 -65 -35 -9 -23 -21 -35 -34 -35
-11 0 -20 2 -20 4 0 5 91 238 97 249 2 4 12 7 22 7 13 0 30 -31 68 -130z m153
75 l0 -55 65 0 65 0 0 55 c0 48 2 55 20 55 19 0 20 -7 20 -130 0 -123 -1 -130
-20 -130 -18 0 -20 7 -20 55 l0 55 -65 0 -65 0 0 -55 c0 -48 -2 -55 -20 -55
-19 0 -20 7 -20 130 0 123 1 130 20 130 18 0 20 -7 20 -55z m349 -20 c23 -41
43 -75 46 -75 2 0 22 34 45 75 29 53 47 75 61 75 18 0 19 -8 19 -130 0 -123
-1 -130 -20 -130 -18 0 -20 7 -20 88 l0 87 -37 -67 c-21 -38 -42 -68 -48 -68
-6 0 -27 30 -48 68 l-37 67 0 -87 c0 -81 -2 -88 -20 -88 -19 0 -20 7 -20 130
0 121 1 130 19 130 14 0 31 -22 60 -75z m441 55 c0 -18 -7 -20 -65 -20 l-65 0
0 -35 0 -35 55 0 c48 0 55 -2 55 -20 0 -18 -7 -20 -55 -20 l-55 0 0 -35 0 -35
65 0 c58 0 65 -2 65 -20 0 -19 -7 -20 -90 -20 l-90 0 0 123 c0 68 3 127 7 130
3 4 44 7 90 7 76 0 83 -2 83 -20z m247 -6 c60 -44 64 -152 7 -204 -21 -21 -38
-25 -100 -28 l-74 -4 0 132 0 132 70 -4 c50 -3 77 -9 97 -24z m423 6 c0 -18
-7 -20 -65 -20 l-65 0 0 -35 0 -35 55 0 c48 0 55 -2 55 -20 0 -18 -7 -20 -55
-20 l-55 0 0 -35 0 -35 65 0 c58 0 65 -2 65 -20 0 -18 -7 -20 -85 -20 l-85 0
0 130 0 130 85 0 c78 0 85 -2 85 -20z m120 -90 l0 -109 67 -3 c55 -2 68 -6 71
-20 3 -16 -6 -18 -87 -18 l-91 0 0 130 c0 123 1 130 20 130 19 0 20 -7 20
-110z m259 42 l35 -62 35 65 c28 51 41 65 59 65 23 0 23 0 -9 -57 -18 -32 -41
-71 -51 -88 -10 -16 -18 -49 -18 -72 0 -36 -3 -43 -20 -43 -17 0 -20 7 -20 50
0 41 -8 63 -45 126 -25 41 -45 78 -45 81 0 2 10 3 22 1 16 -2 33 -22 57 -66z
m359 -9 c17 -43 40 -102 51 -130 l21 -53 -23 0 c-17 0 -26 9 -36 35 -12 36
-13 36 -64 33 -48 -3 -52 -5 -61 -35 -7 -25 -14 -33 -32 -33 l-24 0 24 63 c90
236 97 242 144 120z m221 2 c23 -41 43 -75 46 -75 2 0 22 34 45 75 29 53 47
75 61 75 18 0 19 -8 19 -130 0 -123 -1 -130 -20 -130 -18 0 -20 7 -20 88 l0
87 -37 -67 c-21 -38 -42 -68 -48 -68 -6 0 -27 30 -48 68 l-37 67 0 -87 c0 -81
-2 -88 -20 -88 -19 0 -20 7 -20 130 0 121 1 130 19 130 14 0 31 -22 60 -75z
m409 -2 c17 -43 40 -102 51 -130 l21 -53 -23 0 c-17 0 -26 9 -36 35 -12 36
-13 36 -64 33 -48 -3 -52 -5 -61 -35 -7 -25 -14 -33 -32 -33 l-24 0 24 63 c90
236 97 242 144 120z m237 -13 l70 -90 3 90 c2 82 5 90 22 90 19 0 20 -7 20
-130 0 -162 -7 -165 -102 -43 l-68 86 0 -87 c0 -85 0 -86 -25 -86 l-25 0 0
123 c0 172 6 175 105 47z m266 25 l35 -65 35 62 c24 44 41 64 57 66 12 2 22 1
22 -2 0 -3 -20 -40 -45 -82 -37 -62 -45 -84 -45 -125 0 -42 -3 -49 -20 -49
-17 0 -20 7 -20 43 0 23 -8 56 -18 72 -10 17 -33 56 -51 88 -32 57 -32 57 -9
57 18 0 31 -14 59 -65z"/>
<path d="M2437 3329 c-37 -95 -66 -174 -64 -176 3 -2 65 -2 140 -1 l135 3 -64
165 c-36 91 -69 168 -73 173 -4 4 -37 -70 -74 -164z"/>
<path d="M687 1318 c-10 -24 -17 -47 -17 -51 0 -4 18 -7 40 -7 l40 0 -17 43
c-23 61 -28 63 -46 15z"/>
<path d="M1840 1290 l0 -90 44 0 c56 0 86 32 86 92 0 54 -35 88 -90 88 l-40 0
0 -90z"/>
<path d="M3061 1323 c-8 -21 -16 -44 -18 -50 -4 -9 7 -13 35 -13 l40 0 -16 50
c-9 28 -19 50 -22 50 -3 0 -12 -17 -19 -37z"/>
<path d="M3691 1323 c-8 -21 -16 -44 -18 -50 -4 -9 7 -13 35 -13 l40 0 -16 50
c-9 28 -19 50 -22 50 -3 0 -12 -17 -19 -37z"/>
</g>
</svg>
