<?xml version="1.0" standalone="no"?>
<!DOCTYPE svg PUBLIC "-//W3C//DTD SVG 20010904//EN"
 "http://www.w3.org/TR/2001/REC-SVG-20010904/DTD/svg10.dtd">
<svg version="1.0" xmlns="http://www.w3.org/2000/svg"
 width="500.000000pt" height="500.000000pt" viewBox="0 0 500.000000 500.000000"
 preserveAspectRatio="xMidYMid meet">

<g transform="translate(0.000000,500.000000) scale(0.100000,-0.100000)"
fill="#000000" stroke="none">
<path d="M2417 3753 c-11 -18 -237 -583 -237 -591 0 -5 45 -48 101 -96 l101
-86 136 0 137 1 94 89 94 88 -91 224 c-50 123 -105 258 -123 301 l-31 77 -89
0 c-48 0 -90 -3 -92 -7z m163 -420 c36 -91 67 -170 68 -175 2 -4 -60 -8 -138
-8 -131 0 -142 1 -136 18 47 127 130 332 135 332 3 0 35 -75 71 -167z"/>
<path d="M2849 3042 l-113 -108 87 -220 c48 -121 87 -223 87 -227 0 -4 -137
-7 -305 -7 l-305 0 -1 228 0 227 -92 77 -92 78 -6 -58 c-5 -40 -47 -154 -144
-392 -75 -184 -146 -356 -156 -382 l-19 -48 104 0 104 0 53 138 54 137 3 -437
2 -438 520 0 520 0 0 85 0 85 -422 2 -423 3 0 265 0 265 271 3 271 2 122 118
121 117 -79 193 c-44 106 -83 201 -86 212 -6 19 -1 20 99 20 l106 0 0 85 0 85
-84 0 -84 0 -113 -108z"/>
<path d="M3051 2390 l-74 -67 22 -57 23 -56 103 0 104 0 -50 122 c-27 66 -50
122 -51 124 -2 1 -36 -29 -77 -66z"/>
<path d="M681 1398 c-5 -13 -28 -70 -50 -127 -23 -58 -41 -106 -41 -108 0 -2
9 -3 20 -3 13 0 25 12 34 35 14 33 17 35 65 35 48 0 50 -1 61 -35 8 -24 18
-35 31 -35 10 0 19 3 19 8 0 4 -21 62 -47 130 -36 93 -52 122 -66 122 -9 0
-21 -10 -26 -22z m48 -85 l21 -53 -40 0 c-22 0 -40 3 -40 6 0 9 34 103 36 101
1 -1 12 -26 23 -54z"/>
<path d="M890 1290 c0 -123 1 -130 20 -130 18 0 20 7 20 55 l0 55 65 0 65 0 0
-55 c0 -48 2 -55 20 -55 19 0 20 7 20 130 0 123 -1 130 -20 130 -18 0 -20 -7
-20 -55 l0 -55 -65 0 -65 0 0 55 c0 48 -2 55 -20 55 -19 0 -20 -7 -20 -130z"/>
<path d="M1200 1290 c0 -123 1 -130 20 -130 18 0 20 7 20 87 l0 88 38 -65 c20
-35 42 -64 47 -64 6 0 27 29 48 64 l37 65 0 -88 c0 -80 2 -87 20 -87 19 0 20
7 20 130 0 121 -1 130 -19 130 -14 0 -32 -23 -63 -80 l-44 -80 -43 80 c-30 58
-48 80 -62 80 -18 0 -19 -8 -19 -130z"/>
<path d="M1547 1414 c-4 -4 -7 -63 -7 -131 l0 -123 90 0 c83 0 90 1 90 20 0
18 -7 20 -70 20 l-70 0 0 35 0 35 60 0 c53 0 60 2 60 20 0 18 -7 20 -60 20
l-60 0 0 35 0 35 71 0 c62 0 70 2 67 18 -3 14 -16 17 -84 20 -44 1 -83 0 -87
-4z"/>
<path d="M1800 1290 l0 -130 60 0 c104 0 150 39 150 125 0 95 -48 135 -162
135 l-48 0 0 -130z m145 65 c19 -18 25 -35 25 -66 0 -59 -29 -89 -87 -89 l-43
0 0 90 0 90 40 0 c30 0 47 -7 65 -25z"/>
<path d="M2220 1290 l0 -130 85 0 c78 0 85 2 85 20 0 18 -7 20 -65 20 l-65 0
0 35 0 35 55 0 c48 0 55 2 55 20 0 18 -7 20 -55 20 l-55 0 0 35 0 35 65 0 c58
0 65 2 65 20 0 18 -7 20 -85 20 l-85 0 0 -130z"/>
<path d="M2470 1290 l0 -130 91 0 c81 0 90 2 87 18 -3 14 -16 18 -71 20 l-67
3 0 109 c0 103 -1 110 -20 110 -19 0 -20 -7 -20 -130z"/>
<path d="M2705 1391 c8 -17 29 -54 45 -81 22 -38 30 -63 30 -100 0 -43 3 -50
20 -50 17 0 20 7 20 43 0 33 11 61 50 127 39 67 46 86 34 88 -21 5 -30 -5 -69
-73 l-32 -57 -35 63 c-24 45 -41 65 -57 67 -22 3 -22 3 -6 -27z"/>
<path d="M3032 1343 c-17 -43 -40 -102 -51 -130 l-21 -53 21 0 c13 0 25 11 35
35 14 33 17 35 63 35 48 0 50 -1 62 -35 10 -26 19 -35 36 -35 l23 0 -21 53
c-12 28 -35 87 -51 130 -22 57 -34 77 -48 77 -14 0 -26 -20 -48 -77z m67 -20
c7 -21 15 -44 17 -50 4 -9 -7 -13 -36 -13 -30 0 -41 4 -37 13 2 6 10 29 18 50
7 20 16 37 19 37 4 0 12 -17 19 -37z"/>
<path d="M3270 1290 c0 -123 1 -130 20 -130 18 0 20 7 20 87 l0 88 38 -65 c20
-35 42 -64 47 -64 6 0 27 29 48 64 l37 65 0 -88 c0 -80 2 -87 20 -87 19 0 20
7 20 130 0 121 -1 130 -19 130 -14 0 -32 -23 -63 -80 l-44 -80 -43 80 c-30 58
-48 80 -62 80 -18 0 -19 -8 -19 -130z"/>
<path d="M3662 1343 c-17 -43 -40 -102 -51 -130 l-21 -53 21 0 c13 0 25 11 35
35 14 33 17 35 63 35 48 0 50 -1 62 -35 10 -26 19 -35 36 -35 l23 0 -21 53
c-12 28 -35 87 -51 130 -22 57 -34 77 -48 77 -14 0 -26 -20 -48 -77z m67 -20
c7 -21 15 -44 17 -50 4 -9 -7 -13 -36 -13 -30 0 -41 4 -37 13 2 6 10 29 18 50
7 20 16 37 19 37 4 0 12 -17 19 -37z"/>
<path d="M3897 1413 c-4 -3 -7 -62 -7 -130 0 -116 1 -123 20 -123 18 0 20 7
20 85 0 47 3 85 8 85 4 0 37 -38 72 -85 93 -121 100 -117 100 46 0 119 -2 130
-17 127 -15 -3 -19 -18 -23 -91 l-5 -88 -70 90 c-65 86 -82 100 -98 84z"/>
<path d="M4190 1412 c0 -5 20 -45 45 -88 34 -59 45 -90 45 -121 0 -36 3 -43
20 -43 17 0 20 7 20 50 0 41 8 63 45 126 25 41 45 78 45 81 0 2 -10 3 -22 1
-14 -2 -32 -23 -56 -66 l-34 -63 -37 63 c-20 35 -44 64 -54 66 -9 2 -17 -1
-17 -6z"/>
</g>
</svg>
